<svg xmlns="http://www.w3.org/2000/svg" viewBox="0 0 102.29 16"><defs><style>.cls-1{fill:#44b595;}.cls-2{fill:#2d2c51;}</style></defs><g id="Laag_2" data-name="Laag 2"><g id="Laag_1-2" data-name="Laag 1"><path class="cls-1" d="M8,11a3,3,0,1,1,3-3A3,3,0,0,1,8,11Zm0,1A4,4,0,1,0,4,8,4,4,0,0,0,8,12ZM8,0a.5.5,0,0,1,.5.5v2a.5.5,0,0,1-1,0V.5A.5.5,0,0,1,8,0ZM8,13a.5.5,0,0,1,.5.5v2a.5.5,0,0,1-1,0v-2A.5.5,0,0,1,8,13Zm8-5a.5.5,0,0,1-.5.5h-2a.5.5,0,0,1,0-1h2A.5.5,0,0,1,16,8ZM3,8a.5.5,0,0,1-.5.5H.5a.5.5,0,0,1,0-1h2A.5.5,0,0,1,3,8ZM13.66,2.34a.51.51,0,0,1,0,.71L12.24,4.47a.49.49,0,0,1-.7,0,.48.48,0,0,1,0-.7L13,2.34A.51.51,0,0,1,13.66,2.34Zm-9.2,9.2a.48.48,0,0,1,0,.7L3.05,13.66A.5.5,0,0,1,2.34,13l1.42-1.41A.48.48,0,0,1,4.46,11.54Zm9.2,2.12a.51.51,0,0,1-.71,0l-1.41-1.42a.48.48,0,0,1,0-.7.49.49,0,0,1,.69,0L13.66,13A.51.51,0,0,1,13.66,13.66ZM4.46,4.47a.5.5,0,0,1-.7,0L2.34,3.05A.5.5,0,0,1,3,2.33h0L4.46,3.76a.48.48,0,0,1,0,.7Z"/><path class="cls-2" d="M22.36,4.49a.4.4,0,0,1,.26.1.31.31,0,0,1,.11.25.55.55,0,0,1,0,.17l-2.35,5.56a.35.35,0,0,1-.35.23.39.39,0,0,1-.2-.06.39.39,0,0,1-.14-.17L17.33,5a.24.24,0,0,1,0-.08.28.28,0,0,1,0-.09.34.34,0,0,1,.12-.27.4.4,0,0,1,.24-.09.36.36,0,0,1,.35.25l2.15,5.13H20L22,4.73A.35.35,0,0,1,22.36,4.49Z"/><path class="cls-2" d="M27.36,6.11a.34.34,0,0,1,.36.36v4a.43.43,0,0,1-.1.27.35.35,0,0,1-.26.1.33.33,0,0,1-.26-.1.38.38,0,0,1-.1-.27V9.58l.17,0A.9.9,0,0,1,27,10a1.79,1.79,0,0,1-.36.43,2,2,0,0,1-1.24.46,1.89,1.89,0,0,1-1.1-.32,2.21,2.21,0,0,1-.77-.86,2.72,2.72,0,0,1-.29-1.26,2.65,2.65,0,0,1,.29-1.25,2.21,2.21,0,0,1,.77-.86A2,2,0,0,1,25.41,6a2.18,2.18,0,0,1,.72.13,2,2,0,0,1,.58.34,1.71,1.71,0,0,1,.38.48,1,1,0,0,1,.14.52l-.23,0v-1a.34.34,0,0,1,.1-.26A.33.33,0,0,1,27.36,6.11ZM25.5,10.23a1.35,1.35,0,0,0,.8-.24,1.52,1.52,0,0,0,.54-.63A2.06,2.06,0,0,0,27,8.45a2,2,0,0,0-.19-.89,1.65,1.65,0,0,0-.54-.63,1.42,1.42,0,0,0-.8-.23,1.4,1.4,0,0,0-.78.23,1.66,1.66,0,0,0-.55.62,2.25,2.25,0,0,0,0,1.81,1.62,1.62,0,0,0,.55.63A1.33,1.33,0,0,0,25.5,10.23Z"/><path class="cls-2" d="M29.48,10.8a.34.34,0,0,1-.26-.1.39.39,0,0,1-.11-.27V4.51a.36.36,0,0,1,.11-.26.35.35,0,0,1,.26-.11.36.36,0,0,1,.26.11.35.35,0,0,1,.1.26v5.92a.38.38,0,0,1-.1.27A.35.35,0,0,1,29.48,10.8Zm3-4.68a.38.38,0,0,1,.35.35.36.36,0,0,1-.14.27L29.76,9.29l0-.84,2.48-2.22A.38.38,0,0,1,32.47,6.12Zm.1,4.68a.34.34,0,0,1-.27-.12l-1.92-2,.54-.49,1.9,2a.4.4,0,0,1,.11.27.29.29,0,0,1-.13.26A.42.42,0,0,1,32.57,10.8Z"/><path class="cls-2" d="M37.73,6.11a.34.34,0,0,1,.26.1.38.38,0,0,1,.1.26v4a.39.39,0,0,1-.11.27.33.33,0,0,1-.25.1.33.33,0,0,1-.26-.1.38.38,0,0,1-.1-.27V9.58l.17,0a.9.9,0,0,1-.14.44,1.63,1.63,0,0,1-.37.43,1.68,1.68,0,0,1-.55.33,1.72,1.72,0,0,1-.68.13,2,2,0,0,1-1.11-.32,2.29,2.29,0,0,1-.77-.86,2.85,2.85,0,0,1-.28-1.26,2.77,2.77,0,0,1,.28-1.25,2.29,2.29,0,0,1,.77-.86A2.05,2.05,0,0,1,35.77,6a2.09,2.09,0,0,1,.72.13,1.74,1.74,0,0,1,.58.34,1.59,1.59,0,0,1,.39.48,1.13,1.13,0,0,1,.14.52l-.23,0v-1a.34.34,0,0,1,.1-.26A.33.33,0,0,1,37.73,6.11Zm-1.86,4.12a1.37,1.37,0,0,0,.8-.24,1.52,1.52,0,0,0,.54-.63,2.06,2.06,0,0,0,.19-.91,2,2,0,0,0-.19-.89,1.65,1.65,0,0,0-.54-.63,1.44,1.44,0,0,0-.8-.23,1.4,1.4,0,0,0-.78.23,1.5,1.5,0,0,0-.55.62,2.15,2.15,0,0,0,0,1.81,1.47,1.47,0,0,0,.55.63A1.33,1.33,0,0,0,35.87,10.23Z"/><path class="cls-2" d="M41.73,6a1.59,1.59,0,0,1,1,.26,1.25,1.25,0,0,1,.5.67,2.83,2.83,0,0,1,.15,1v2.52a.38.38,0,0,1-.1.27.35.35,0,0,1-.26.1.34.34,0,0,1-.26-.1.43.43,0,0,1-.1-.27V7.93a1.75,1.75,0,0,0-.1-.62,1,1,0,0,0-.35-.44,1.05,1.05,0,0,0-.64-.17,1.37,1.37,0,0,0-.7.17,1.34,1.34,0,0,0-.5.44,1.06,1.06,0,0,0-.19.62v2.5a.39.39,0,0,1-.11.27.32.32,0,0,1-.25.1.35.35,0,0,1-.26-.1.38.38,0,0,1-.1-.27V6.52a.36.36,0,0,1,.1-.27.4.4,0,0,1,.26-.1.38.38,0,0,1,.26.1.36.36,0,0,1,.1.27v.63l-.18.2a1.26,1.26,0,0,1,.21-.48,1.76,1.76,0,0,1,.4-.42,1.78,1.78,0,0,1,.54-.3A1.67,1.67,0,0,1,41.73,6Z"/><path class="cls-2" d="M44.49,6.18h2.12a.31.31,0,0,1,.24.1.32.32,0,0,1,.09.24.32.32,0,0,1-.09.23.34.34,0,0,1-.24.09H44.49a.29.29,0,0,1-.23-.1.3.3,0,0,1-.11-.23.34.34,0,0,1,.34-.33ZM45.44,5a.33.33,0,0,1,.25.11.35.35,0,0,1,.1.26V9.66a.67.67,0,0,0,.06.32.3.3,0,0,0,.17.15.51.51,0,0,0,.2,0,.41.41,0,0,0,.16,0,.38.38,0,0,1,.16,0,.21.21,0,0,1,.16.09.31.31,0,0,1-.11.49.76.76,0,0,1-.42.11h-.31a1.33,1.33,0,0,1-.37-.12.81.81,0,0,1-.3-.33,1.4,1.4,0,0,1-.12-.64V5.32A.38.38,0,0,1,45.44,5Z"/><path class="cls-2" d="M48.27,5.48a.51.51,0,0,1-.34-.09.36.36,0,0,1-.11-.28V5a.32.32,0,0,1,.12-.28.54.54,0,0,1,.33-.09.5.5,0,0,1,.33.09.35.35,0,0,1,.11.28v.13a.34.34,0,0,1-.12.28A.49.49,0,0,1,48.27,5.48Zm.36,4.95a.38.38,0,0,1-.1.27.34.34,0,0,1-.26.1.35.35,0,0,1-.26-.1.39.39,0,0,1-.11-.27v-4A.36.36,0,0,1,48,6.19a.33.33,0,0,1,.26-.11.31.31,0,0,1,.26.11.35.35,0,0,1,.1.26Z"/><path class="cls-2" d="M52,10.89a2.55,2.55,0,0,1-1.26-.3,2.26,2.26,0,0,1-.84-.84,2.4,2.4,0,0,1-.31-1.24,2.79,2.79,0,0,1,.31-1.34,2.19,2.19,0,0,1,.81-.84,2.07,2.07,0,0,1,1.87-.14,2,2,0,0,1,.68.45,2.18,2.18,0,0,1,.48.7,2.22,2.22,0,0,1,.19.92.28.28,0,0,1-.12.23.33.33,0,0,1-.25.1H50.05L49.89,8h3.46l-.14.12V7.9A1.25,1.25,0,0,0,53,7.26a1.57,1.57,0,0,0-.51-.41,1.61,1.61,0,0,0-.64-.14,1.39,1.39,0,0,0-.53.1,1.34,1.34,0,0,0-.48.3,1.61,1.61,0,0,0-.34.54,2.41,2.41,0,0,0-.12.8,1.92,1.92,0,0,0,.21.92,1.56,1.56,0,0,0,.59.63,1.66,1.66,0,0,0,.87.23,1.73,1.73,0,0,0,.55-.08,1.37,1.37,0,0,0,.4-.21,1.85,1.85,0,0,0,.29-.24.36.36,0,0,1,.23-.08.29.29,0,0,1,.22.09.29.29,0,0,1,.09.21.36.36,0,0,1-.15.28,2.23,2.23,0,0,1-1.6.69Z"/><path class="cls-2" d="M57.3,6a2,2,0,0,1,1.1.31,2.26,2.26,0,0,1,.77.85,2.66,2.66,0,0,1,.28,1.26,2.72,2.72,0,0,1-.28,1.26,2.21,2.21,0,0,1-.77.86,1.85,1.85,0,0,1-1.08.32,1.89,1.89,0,0,1-.63-.1,2.11,2.11,0,0,1-.93-.66,1.46,1.46,0,0,1-.23-.42l.2-.12v.89a.4.4,0,0,1-.1.26.36.36,0,0,1-.26.11.38.38,0,0,1-.26-.1.36.36,0,0,1-.1-.27v-6a.35.35,0,0,1,.1-.26.35.35,0,0,1,.26-.11.36.36,0,0,1,.26.11.4.4,0,0,1,.1.26V7.28l-.14-.07a1.35,1.35,0,0,1,.22-.43,1.76,1.76,0,0,1,.39-.38,2.06,2.06,0,0,1,.51-.27A2,2,0,0,1,57.3,6Zm-.08.67a1.44,1.44,0,0,0-.8.23,1.55,1.55,0,0,0-.54.62,2,2,0,0,0-.19.9,2,2,0,0,0,.19.9,1.49,1.49,0,0,0,.54.64,1.37,1.37,0,0,0,.8.24A1.34,1.34,0,0,0,58,10a1.49,1.49,0,0,0,.54-.64,2,2,0,0,0,.2-.9,2,2,0,0,0-.2-.9A1.55,1.55,0,0,0,58,6.93,1.41,1.41,0,0,0,57.22,6.7Z"/><path class="cls-2" d="M62.59,10.89a2.55,2.55,0,0,1-1.26-.3,2.26,2.26,0,0,1-.84-.84,2.5,2.5,0,0,1-.3-1.24,2.68,2.68,0,0,1,.31-1.34,2.19,2.19,0,0,1,.81-.84A2,2,0,0,1,62.37,6a2.17,2.17,0,0,1,1.49.61,2.18,2.18,0,0,1,.48.7,2.39,2.39,0,0,1,.19.92.38.38,0,0,1-.37.33H60.6L60.44,8h3.47l-.15.12V7.9a1.16,1.16,0,0,0-.24-.64A1.72,1.72,0,0,0,63,6.85a1.52,1.52,0,0,0-.63-.14,1.47,1.47,0,0,0-.54.1,1.3,1.3,0,0,0-.47.3,1.35,1.35,0,0,0-.34.54,2.17,2.17,0,0,0-.13.8,1.92,1.92,0,0,0,.21.92,1.63,1.63,0,0,0,.59.63,1.7,1.7,0,0,0,.88.23,1.77,1.77,0,0,0,.55-.08,1.51,1.51,0,0,0,.4-.21,2.47,2.47,0,0,0,.29-.24A.35.35,0,0,1,64,9.62a.32.32,0,0,1,.23.09.29.29,0,0,1,.09.21.35.35,0,0,1-.16.28,2,2,0,0,1-.68.49A2.21,2.21,0,0,1,62.59,10.89Z"/><path class="cls-2" d="M67.81,6.08a1.48,1.48,0,0,1,.94.26,1.33,1.33,0,0,1,.5.68,2.83,2.83,0,0,1,.15,1v2.46a.39.39,0,0,1-.11.27.33.33,0,0,1-.25.1.33.33,0,0,1-.26-.1.38.38,0,0,1-.1-.27V8a2,2,0,0,0-.1-.61,1,1,0,0,0-.33-.45,1,1,0,0,0-.63-.17,1.39,1.39,0,0,0-.67.17,1.25,1.25,0,0,0-.49.45,1.09,1.09,0,0,0-.18.61v2.46a.38.38,0,0,1-.1.27.34.34,0,0,1-.26.1.33.33,0,0,1-.25-.1.39.39,0,0,1-.11-.27V4.51a.36.36,0,0,1,.11-.26.34.34,0,0,1,.25-.11.33.33,0,0,1,.26.11.35.35,0,0,1,.1.26V7.19l-.18.2a1.44,1.44,0,0,1,.2-.47,1.75,1.75,0,0,1,.39-.43,2.21,2.21,0,0,1,.52-.3A1.73,1.73,0,0,1,67.81,6.08Z"/><path class="cls-2" d="M72.84,10.89a2.62,2.62,0,0,1-1.27-.3,2.33,2.33,0,0,1-.84-.84,2.5,2.5,0,0,1-.3-1.24,2.79,2.79,0,0,1,.31-1.34,2.19,2.19,0,0,1,.81-.84,2.07,2.07,0,0,1,1.87-.14,2,2,0,0,1,.68.45,2.18,2.18,0,0,1,.48.7,2.39,2.39,0,0,1,.19.92.31.31,0,0,1-.12.23.33.33,0,0,1-.25.1H70.85L70.68,8h3.47L74,8.09V7.9a1.25,1.25,0,0,0-.25-.64,1.5,1.5,0,0,0-.52-.41,1.52,1.52,0,0,0-.63-.14,1.47,1.47,0,0,0-.54.1,1.39,1.39,0,0,0-.47.3,1.47,1.47,0,0,0-.34.54,2.39,2.39,0,0,0-.13.8,1.82,1.82,0,0,0,.22.92,1.56,1.56,0,0,0,.59.63,1.66,1.66,0,0,0,.87.23,1.77,1.77,0,0,0,.55-.08,1.51,1.51,0,0,0,.4-.21,1.85,1.85,0,0,0,.29-.24.36.36,0,0,1,.23-.08.31.31,0,0,1,.22.09.29.29,0,0,1,.09.21.36.36,0,0,1-.15.28,2.23,2.23,0,0,1-1.6.69Z"/><path class="cls-2" d="M77.91,10.89a2.55,2.55,0,0,1-1.26-.3,2.26,2.26,0,0,1-.84-.84,2.5,2.5,0,0,1-.3-1.24,2.68,2.68,0,0,1,.31-1.34,2.19,2.19,0,0,1,.81-.84A2,2,0,0,1,77.69,6a2,2,0,0,1,.8.16,2.06,2.06,0,0,1,.69.45,2.18,2.18,0,0,1,.48.7,2.39,2.39,0,0,1,.19.92.38.38,0,0,1-.37.33H75.92L75.76,8h3.47l-.15.12V7.9a1.17,1.17,0,0,0-.25-.64,1.57,1.57,0,0,0-.51-.41,1.52,1.52,0,0,0-.63-.14,1.47,1.47,0,0,0-.54.1,1.43,1.43,0,0,0-.48.3,1.45,1.45,0,0,0-.33.54,2.17,2.17,0,0,0-.13.8,1.92,1.92,0,0,0,.21.92A1.63,1.63,0,0,0,77,10a1.66,1.66,0,0,0,.87.23,1.84,1.84,0,0,0,.56-.08,1.69,1.69,0,0,0,.4-.21,2.47,2.47,0,0,0,.29-.24.33.33,0,0,1,.22-.08.32.32,0,0,1,.23.09.29.29,0,0,1,.09.21.37.37,0,0,1-.16.28,2,2,0,0,1-.68.49A2.21,2.21,0,0,1,77.91,10.89Z"/><path class="cls-2" d="M81.24,10.8a.32.32,0,0,1-.25-.1.39.39,0,0,1-.11-.27V6.52A.37.37,0,0,1,81,6.25a.36.36,0,0,1,.25-.1.34.34,0,0,1,.36.37V7.7l-.11-.19a1.92,1.92,0,0,1,.2-.55A2,2,0,0,1,82,6.49a1.92,1.92,0,0,1,.5-.34A1.51,1.51,0,0,1,83.15,6a.75.75,0,0,1,.36.1.29.29,0,0,1,.17.26.38.38,0,0,1-.1.29.31.31,0,0,1-.22.09.59.59,0,0,1-.23,0,.54.54,0,0,0-.27-.06.9.9,0,0,0-.44.13,1.34,1.34,0,0,0-.41.35,1.9,1.9,0,0,0-.3.5,1.74,1.74,0,0,0-.11.61v2.18a.38.38,0,0,1-.1.27A.35.35,0,0,1,81.24,10.8Z"/><path class="cls-2" d="M83.72,10.8a.41.41,0,0,1-.3-.11.47.47,0,0,1-.1-.3v-.18a.5.5,0,0,1,.1-.31.4.4,0,0,1,.3-.1h.07a.4.4,0,0,1,.3.1.5.5,0,0,1,.09.31v.18a.47.47,0,0,1-.09.3.41.41,0,0,1-.3.11Z"/><path class="cls-2" d="M87.36,6a3.5,3.5,0,0,1,.83.1,1.65,1.65,0,0,1,.58.27.5.5,0,0,1,.22.39.4.4,0,0,1-.08.23.23.23,0,0,1-.22.11.39.39,0,0,1-.2,0A.53.53,0,0,1,88.35,7l-.19-.13a1.74,1.74,0,0,0-.31-.09,2,2,0,0,0-.42,0,1.65,1.65,0,0,0-.86.23,1.7,1.7,0,0,0-.59.63,1.93,1.93,0,0,0-.21.9,1.87,1.87,0,0,0,.21.9,1.51,1.51,0,0,0,.57.63,1.54,1.54,0,0,0,.86.24,1.63,1.63,0,0,0,.49-.06,1.19,1.19,0,0,0,.32-.12,1,1,0,0,0,.24-.18.32.32,0,0,1,.23-.09.3.3,0,0,1,.25.1.36.36,0,0,1,.08.24.5.5,0,0,1-.23.35,1.87,1.87,0,0,1-.6.3,3,3,0,0,1-.87.12,2.17,2.17,0,0,1-2-1.19,2.82,2.82,0,0,1,0-2.47,2.22,2.22,0,0,1,.82-.87A2.19,2.19,0,0,1,87.36,6Z"/><path class="cls-2" d="M94.34,8.46A2.54,2.54,0,0,1,94,9.71a2.24,2.24,0,0,1-.83.87,2.44,2.44,0,0,1-2.38,0A2.2,2.2,0,0,1,90,9.71a2.45,2.45,0,0,1-.32-1.25A2.5,2.5,0,0,1,90,7.21a2.24,2.24,0,0,1,.84-.86A2.31,2.31,0,0,1,94,7.21,2.6,2.6,0,0,1,94.34,8.46Zm-.72,0a1.91,1.91,0,0,0-.22-.91,1.62,1.62,0,0,0-.57-.62A1.57,1.57,0,0,0,92,6.7a1.5,1.5,0,0,0-.81.23,1.57,1.57,0,0,0-.58.62,1.8,1.8,0,0,0-.22.91,1.78,1.78,0,0,0,.22.91,1.6,1.6,0,0,0,.58.63,1.5,1.5,0,0,0,.81.23,1.57,1.57,0,0,0,.83-.23,1.65,1.65,0,0,0,.57-.63A1.88,1.88,0,0,0,93.62,8.46Z"/><path class="cls-2" d="M97.6,6.08a1.53,1.53,0,0,1,1,.31,1.58,1.58,0,0,1,.51.88H99L99,7.1a1.59,1.59,0,0,1,.37-.48,2.27,2.27,0,0,1,.61-.39,1.71,1.71,0,0,1,.71-.15,1.47,1.47,0,0,1,.93.26,1.37,1.37,0,0,1,.49.68,2.85,2.85,0,0,1,.15,1v2.45a.38.38,0,0,1-.1.27.36.36,0,0,1-.27.1.33.33,0,0,1-.25-.1.39.39,0,0,1-.11-.27V8a1.81,1.81,0,0,0-.1-.63.84.84,0,0,0-.33-.45,1,1,0,0,0-.63-.18,1.32,1.32,0,0,0-.67.18,1.3,1.3,0,0,0-.48.45,1.16,1.16,0,0,0-.18.63v2.43a.38.38,0,0,1-.1.27.34.34,0,0,1-.26.1.33.33,0,0,1-.26-.1.38.38,0,0,1-.1-.27V8a1.7,1.7,0,0,0-.1-.61A.93.93,0,0,0,98,6.91a1,1,0,0,0-.62-.17,1.35,1.35,0,0,0-1.13.62A1.09,1.09,0,0,0,96.1,8v2.46a.38.38,0,0,1-.1.27.39.39,0,0,1-.52,0,.38.38,0,0,1-.1-.27V6.52a.36.36,0,0,1,.1-.27.4.4,0,0,1,.26-.1.38.38,0,0,1,.26.1.36.36,0,0,1,.1.27v.67l-.2.22a1.33,1.33,0,0,1,.19-.47,1.89,1.89,0,0,1,.38-.43A1.71,1.71,0,0,1,97,6.2,1.58,1.58,0,0,1,97.6,6.08Z"/></g></g></svg>